<svg width="48" height="47" viewBox="0 0 48 47" fill="none" xmlns="http://www.w3.org/2000/svg">
<g opacity="0.8">
<path d="M32.1207 42.1941C32.6831 41.6433 32.999 40.8962 32.999 40.1173C32.999 39.3384 32.6831 38.5914 32.1207 38.0405L17.2707 23.4999L32.1207 8.9593C32.6671 8.40528 32.9695 7.66326 32.9627 6.89305C32.9559 6.12285 32.6403 5.38609 32.0841 4.84146C31.5279 4.29682 30.7755 3.98789 29.9889 3.9812C29.2023 3.97451 28.4445 4.27059 27.8787 4.80568L10.9077 21.4231C10.3452 21.974 10.0293 22.721 10.0293 23.4999C10.0293 24.2788 10.3452 25.0259 10.9077 25.5767L27.8787 42.1941C28.4412 42.7448 29.2042 43.0542 29.9997 43.0542C30.7952 43.0542 31.5581 42.7448 32.1207 42.1941Z" fill="white"/>
</g>
</svg>
