<svg width="366" height="56" viewBox="0 0 366 56" fill="none" xmlns="http://www.w3.org/2000/svg">
<rect x="153" width="53" height="56" rx="10" fill="#13131D"/>
<rect x="313" width="53" height="56" rx="10" fill="#13131D"/>
<rect x="233" width="53" height="56" rx="10" fill="#13131D"/>
<path d="M0 10C0 4.47715 4.47715 0 10 0H43C48.5229 0 53 4.47715 53 10V46C53 51.5229 48.5228 56 43 56H10C4.47715 56 0 51.5228 0 46V10Z" fill="#13131D"/>
<path d="M75 10C75 4.47715 79.4772 0 85 0H118C123.523 0 128 4.47715 128 10V46C128 51.5229 123.523 56 118 56H85C79.4772 56 75 51.5228 75 46V10Z" fill="#13131D"/>
</svg>
