<svg width="24" height="24" viewBox="0 0 24 24" fill="none" xmlns="http://www.w3.org/2000/svg">
<path fill-rule="evenodd" clip-rule="evenodd" d="M13.7062 4.70591L16.5131 1.91369C17.7738 0.659656 18.4041 0.0326375 19.1826 0.0015889C19.2357 -0.000529632 19.2889 -0.000529632 19.342 0.0015889C20.1204 0.0326374 20.7507 0.659653 22.0114 1.91369L22.0114 1.91369C23.2842 3.17984 23.9206 3.81291 23.9521 4.5971C23.9543 4.65058 23.9543 4.70411 23.9521 4.75759C23.9206 5.54178 23.2842 6.17485 22.0114 7.441L19.2636 10.1743C16.9645 8.85655 15.0523 6.96823 13.7062 4.70591ZM12.2495 6.15495L2.15942 16.192C1.73202 16.6172 1.51832 16.8298 1.37771 17.0913C1.23711 17.3529 1.1777 17.6484 1.05887 18.2395L0.0642762 23.1863C-0.00258366 23.5188 -0.0360136 23.6851 0.0584989 23.7798C0.153011 23.8745 0.319351 23.8414 0.65203 23.7752L5.64131 22.7826C6.22918 22.6657 6.52312 22.6072 6.78374 22.4683C7.04436 22.3295 7.25683 22.1181 7.68178 21.6954L17.7997 11.6306C15.5525 10.2467 13.6559 8.37052 12.2495 6.15495Z" fill="white"/>
</svg>
